HIERARCHY
ROOT Hips
{
	OFFSET	0.00	0.00	0.00
	CHANNELS 6 Xposition Yposition Zposition Zrotation Xrotation Yrotation
	JOINT Spine
	{
		OFFSET	 0.00	0.01	 0.00
		CHANNELS 3 Zrotation Xrotation Yrotation
		JOINT Spine1
		{
			OFFSET	 0.00	 2.45913012437421	 0.00
			CHANNELS 3 Zrotation Xrotation Yrotation
            JOINT Neck
            {
                OFFSET	 0.00	 2.48462964506057	 0.00
                CHANNELS 3 Zrotation Xrotation Yrotation
                JOINT Head
                {
                    OFFSET	 0.00	 0.927524780924562	 0.00
                    CHANNELS 3 Zrotation Xrotation Yrotation
                    End Site 
                    {
                        OFFSET	 0.00	 1.14999962169752	 0.00
                    }
                }
            }
			JOINT LeftShoulder
			{
				OFFSET	 0.00	 2.48462964506057	 0.00
				CHANNELS 3 Zrotation Xrotation Yrotation
				JOINT LeftUpArm
				{
					OFFSET	 0.00	 1.24881979654096	 0.00
					CHANNELS 3 Zrotation Xrotation Yrotation
					JOINT LeftForeArm
					{
						OFFSET	 0.00	2.59758046908119	 0.00
						CHANNELS 3 Zrotation Xrotation Yrotation
						JOINT LeftHand
						{
							OFFSET	 0.00	2.45542024364365	 0.00
							CHANNELS 3 Zrotation Xrotation Yrotation
							JOINT LeftHandThumb 
							{
								OFFSET	 0.00	0.00	 0.00
								CHANNELS 3 Zrotation Xrotation Yrotation
								End Site
								{
									OFFSET	 0.00	0.00	1.00000003353624
								}
							}
							JOINT L_Wrist_End 
							{
								OFFSET	 0.00	0.99999967115358	 0.00
								CHANNELS 3 Zrotation Xrotation Yrotation
								End Site 
								{
									OFFSET	 0.00	 0.00	 0.00
								}
							}
						}
					}
				}
			}
			JOINT RightShoulder
			{
				OFFSET	 0.00	 2.48462964506057	 0.00
				CHANNELS 3 Zrotation Xrotation Yrotation
				JOINT RightUpArm
				{
					OFFSET	 0.00	 1.24881979654096	 0.00
					CHANNELS 3 Zrotation Xrotation Yrotation
					JOINT RightForeArm
					{
						OFFSET	 0.00	2.59758046908119	 0.00
						CHANNELS 3 Zrotation Xrotation Yrotation
						JOINT RightHand
						{
							OFFSET	 0.00	2.45542024364365	 0.00
							CHANNELS 3 Zrotation Xrotation Yrotation
							JOINT RightHandThumb 
							{
								OFFSET	 0.00	0.00	 0.00
								CHANNELS 3 Zrotation Xrotation Yrotation
								End Site
								{
									OFFSET	 0.00	0.00	1.00000003353624
								}
							}
							JOINT R_Wrist_End 
							{
								OFFSET	 0.00	0.99999967115358	 0.00
								CHANNELS 3 Zrotation Xrotation Yrotation
								End Site 
								{
									OFFSET	 0.00	 0.00	 0.00
								}
							}
						}
					}
				}
			}
		}
	}
	JOINT LeftUpLeg
	{
		OFFSET	 1.2719394002717	 0.00	 0.00
		CHANNELS 3 Zrotation Xrotation Yrotation
		JOINT LeftLowLeg
		{
			OFFSET	 0.00	-4.3429100912261	 0.00
			CHANNELS 3 Zrotation Xrotation Yrotation
			JOINT LeftFoot
			{
				OFFSET	 0.00	-4.48767017425826	 0.00
				CHANNELS 3 Zrotation Xrotation Yrotation
				JOINT LeftToeBase
                {
                    OFFSET	 0.00	0.00	 1.51507020887566
                    CHANNELS 3 Zrotation Xrotation Yrotation
                    End Site 
                    {
                        OFFSET	 0.00	0.00	 0.75000010571191
                    }
                }
			}
		}
	}
	JOINT RightUpLeg
	{
		OFFSET	 -1.2719393604653	 0.00	 0.00
		CHANNELS 3 Zrotation Xrotation Yrotation
		JOINT RightLowLeg
		{
			OFFSET	 0.00	-4.3429100912261	 0.00
			CHANNELS 3 Zrotation Xrotation Yrotation
			JOINT RightFoot
			{
				OFFSET	 0.00	-4.48767017425826	 0.00
				CHANNELS 3 Zrotation Xrotation Yrotation
				JOINT RightToeBase
                {
                    OFFSET	 0.00	0.00	 1.51507020887566
                    CHANNELS 3 Zrotation Xrotation Yrotation
                    End Site 
                    {
                        OFFSET	 0.00	0.00	 0.749999965609858
                    }
                }   
			}
		}
	}
}
MOTION 
Frames:	15 
Frame Time: 0.02 
 5.324299926757813 14.8072998046875 10.6981005859375 -67.5611 89.1334 26.2504 2.75708 -19.8181 -7.13519 0.84723 38.617 1.39283 -26.7682 41.3108 24.7905 22.1522 -53.1022 25.898 -119.7024 3.2484 -8.91702 -33.9522 0.070917 38.4086 0.0 32.3828 0.0 29.9062 7.83459 21.9847 0.0 0.0 0.0 0.0 0.0 0.0 115.8048 3.96859 4.53932 36.7766 8.15784 -22.5326 0.0 26.0453 0.0 -7.83943 0.112668 5.70299 0.0 0.0 0.0 0.0 0.0 0.0 8.52185 -3.59161 5.62817 0.0 21.3733 0.0 -10.401 9.566521 10.2176 0.0 -22.0344 0.0 8.91101 6.41058 6.76476 0.0 5.87179 0.0 15.9825 7.85935 -23.612 0.0 -11.94291 0.0 
  5.32655029296875 14.80719970703125 10.6927001953125 -74.1531 88.9482 32.6602 2.79951 -20.1212 -7.31828 1.27071 38.4614 1.28126 -30.4282 42.3901 28.8784 20.6142 -50.704 24.9024 -119.8014 3.25552 -8.52367 -33.5076 0.567791 38.2605 0.0 33.6963 0.0 32.4187 9.79775 22.5456 0.0 0.0 0.0 0.0 0.0 0.0 115.637695 3.9493 4.16111 36.5085 8.32468 -21.8356 0.0 27.0162 0.0 -8.43255 0.310585 5.84352 0.0 0.0 0.0 0.0 0.0 0.0 8.70966 -2.98031 6.02362 0.0 21.5009 0.0 -11.518 8.94903 10.9938 0.0 -21.073181 0.0 9.06981 6.50417 6.96852 0.0 5.8991 0.0 15.9494 7.81807 -23.614 0.0 -11.88605 0.0 
  5.330009765625 14.80510009765625 10.68699951171875 -77.7546 88.6927 36.0746 2.4681 -20.206 -7.84379 2.42121 38.2802 1.29988 -34.4268 43.0903 33.1093 19.1846 -48.7389 23.4876 -120.3666 3.23931 -8.28171 -33.0032 1.04733 38.009 0.0 35.3142 0.0 34.7915 11.4467 22.0987 0.0 0.0 0.0 0.0 0.0 0.0 115.0895 3.67265 4.11113 36.2836 8.29202 -21.3557 0.0 28.128 0.0 -9.16006 0.446916 5.98224 0.0 0.0 0.0 0.0 0.0 0.0 8.85719 -2.12936 6.35516 0.0 21.0513 0.0 -12.9334 8.564859 11.0248 0.0 -19.3352 0.0 9.24885 6.58465 7.20313 0.0 6.07998 0.0 15.95 7.69357 -23.6402 0.0 -11.79968 0.0 
  5.335670166015625 14.802099609375 10.680799560546875 -81.0869 88.3719 39.2226 2.35905 -20.1969 -8.13713 3.28629 38.0978 1.34209 -37.6761 43.6828 36.3535 18.1064 -47.3389 22.5708 -120.6847 3.21503 -8.17997 -32.6142 1.51626 37.4837 0.0 37.1871 0.0 37.1323 12.9101 19.6655 0.0 0.0 0.0 0.0 0.0 0.0 114.658005 3.44754 4.08789 36.1358 8.069 -20.9321 0.0 29.2409 0.0 -10.1421 0.628099 6.24667 0.0 0.0 0.0 0.0 0.0 0.0 9.0104 -1.07791 6.9082 0.0 19.9072 0.0 -13.8307 8.14406 10.7083 0.0 -17.52763 0.0 9.47713 6.68084 7.55512 0.0 6.28442 0.0 15.9865 7.56955 -23.7574 0.0 -11.75531 0.0 
  5.343989868164062 14.794599609375 10.67530029296875 -84.9635 88.0695 43.0139 2.30778 -20.1673 -8.43094 4.11159 37.8525 1.32763 -40.6468 44.2041 39.1678 17.6159 -46.8001 22.0228 -120.9866 3.04683 -8.08723 -32.2836 2.08601 37.3597 0.0 38.9173 0.0 38.6182 14.3296 24.617 0.0 0.0 0.0 0.0 0.0 0.0 114.259796 3.21812 3.88024 35.972 7.89904 -20.5771 0.0 30.2124 0.0 -11.1894 0.804467 7.17883 0.0 0.0 0.0 0.0 0.0 0.0 9.08921 0.0207858 7.82928 0.0 18.1409 0.0 -13.7633 7.74495 10.5646 0.0 -16.04156 0.0 9.69681 6.76986 7.84077 0.0 6.41346 0.0 16.1121 7.48037 -23.8392 0.0 -11.78787 0.0 
  5.3535400390625 14.784000244140625 10.670699462890624 -84.8548 87.7115 42.7965 2.42187 -20.0786 -8.4278 4.48989 37.7561 1.39444 -42.5913 44.6343 40.9334 17.4994 -46.6463 21.9162 -121.1703 2.95875 -8.12285 -31.8421 2.77911 36.912 0.0 40.8908 0.0 40.8714 15.1532 19.6473 0.0 0.0 0.0 0.0 0.0 0.0 114.0408 2.98007 3.91802 35.9172 7.58145 -20.4087 0.0 31.0255 0.0 -11.9797 1.03736 8.11437 0.0 0.0 0.0 0.0 0.0 0.0 9.06863 1.37546 9.02822 0.0 15.8903 0.0 -13.3673 7.66358 10.7614 0.0 -14.500611 0.0 9.85887 6.99276 8.34 0.0 6.53888 0.0 16.24 7.36453 -24.0758 0.0 -11.90645 0.0 
  5.364959716796875 14.772099609375 10.665799560546875 -86.1836 87.4391 44.1564 2.5935 -20.0743 -8.36015 4.63512 37.6531 1.41375 -43.8112 44.8398 42.0987 17.6465 -46.5272 21.8322 -121.1564 2.93967 -8.1373 -31.5176 3.31394 36.2894 0.0 42.7712 0.0 41.8246 16.4814 22.702 0.0 0.0 0.0 0.0 0.0 0.0 113.9728 2.79269 3.84351 35.8827 7.30794 -20.163 0.0 31.6055 0.0 -12.5397 1.14782 8.96165 0.0 0.0 0.0 0.0 0.0 0.0 9.03092 2.59148 10.4218 0.0 13.7298 0.0 -12.8094 7.70881 10.5389 0.0 -13.52168 0.0 10.0097 7.12886 8.67416 0.0 6.61387 0.0 16.4394 7.16309 -24.26 0.0 -11.92738 0.0 
  5.375889892578125 14.759200439453124 10.661199951171875 -86.8383 87.2007 44.924 2.74692 -20.0948 -8.26599 4.59906 37.5703 1.41229 -44.432 44.9605 42.7216 17.9526 -46.4701 21.8664 -121.0767 3.00004 -8.226 -31.1545 3.73214 35.7448 0.0 44.57 0.0 42.6433 17.2797 23.1429 0.0 0.0 0.0 0.0 0.0 0.0 113.9909 2.65812 3.80075 35.9361 7.05146 -20.0405 0.0 31.8683 0.0 -12.9187 1.13755 9.21087 0.0 0.0 0.0 0.0 0.0 0.0 8.97151 3.69698 12.1523 0.0 11.8588 0.0 -11.9418 7.84133 9.77258 0.0 -12.39765 0.0 10.1338 7.29436 8.98112 0.0 6.63039 0.0 16.5298 7.00076 -24.5166 0.0 -12.00684 0.0 
  5.3882598876953125 14.746500244140625 10.65699951171875 -88.2901 87.0423 46.589 2.80639 -20.1657 -8.25945 4.58751 37.4337 1.38693 -44.549 45.1853 42.6948 18.1117 -46.4858 21.9574 -121.0263 3.11237 -8.25087 -30.8217 4.15371 35.236 0.0 46.1095 0.0 43.2946 17.7767 23.077 0.0 0.0 0.0 0.0 0.0 0.0 114.0013 2.58497 3.75537 36.0457 6.81951 -20.0093 0.0 31.8107 0.0 -12.939 1.12601 9.21452 0.0 0.0 0.0 0.0 0.0 0.0 8.92238 4.478 13.6468 0.0 10.3097 0.0 -11.0988 8.08521 8.90691 0.0 -11.8146305 0.0 10.2424 7.34217 9.25811 0.0 6.67528 0.0 16.7807 6.7376604 -24.7523 0.0 -12.070641 0.0 
  5.402570190429688 14.73530029296875 10.652900390625 -91.5174 86.9213 50.1268 2.81176 -20.2371 -8.3267 4.65504 37.2041 1.34865 -44.378 45.3844 42.3845 18.4099 -46.5845 22.0725 -120.9854 3.29931 -8.34321 -30.554 4.45958 34.8023 0.0 47.4867 0.0 43.6293 18.0895 21.4157 0.0 0.0 0.0 0.0 0.0 0.0 114.0351 2.51709 3.78979 36.1699 6.56763 -20.0764 0.0 31.497 0.0 -12.7696 0.991349 8.87976 0.0 0.0 0.0 0.0 0.0 0.0 8.95452 5.00914 14.6826 0.0 8.94051 0.0 -10.4728 8.3814 7.92695 0.0 -11.47845 0.0 10.3968 7.26802 9.50215 0.0 6.72425 0.0 16.945 6.5265303 -25.0827 0.0 -12.1353 0.0 
  5.41802001953125 14.7218994140625 10.651500244140625 -92.948 86.8448 51.7995 2.84875 -20.3431 -8.29721 4.51496 37.1267 1.31784 -43.9085 45.406 41.8587 18.6301 -46.6621 22.0515 -120.8122 3.43464 -8.52141 -30.4254 4.82976 34.5405 0.0 48.4943 0.0 43.0852 18.1233 21.8793 0.0 0.0 0.0 0.0 0.0 0.0 114.1589 2.40709 3.8619 36.3257 6.53846 -20.3505 0.0 30.9199 0.0 -12.4307 0.843846 8.25969 0.0 0.0 0.0 0.0 0.0 0.0 8.87477 5.6335 15.2517 0.0 7.47347 0.0 -10.1487 8.87216 7.08046 0.0 -11.2508 0.0 10.4238 7.22217 9.58723 0.0 6.79853 0.0 17.0952 6.37144 -25.2014 0.0 -12.13045 0.0 
  5.435390014648437 14.711199951171874 10.65199951171875 -93.798 86.8527 52.9804 2.68248 -20.3849 -8.43678 4.48712 37.0028 1.27365 -43.5245 45.3897 41.4016 18.9082 -46.9366 21.9956 -120.7357 3.59217 -8.61747 -30.3233 5.16332 33.8891 0.0 49.3247 0.0 41.3347 17.8981 21.5629 0.0 0.0 0.0 0.0 0.0 0.0 114.3 2.39533 3.8979 36.4358 6.48532 -20.6159 0.0 30.2091 0.0 -11.9788 0.717269 7.58197 0.0 0.0 0.0 0.0 0.0 0.0 8.7933 5.92522 15.3772 0.0 6.576 0.0 -10.1045 9.249929 6.42326 0.0 -11.30724 0.0 10.368 7.13683 9.44515 0.0 6.8417 0.0 17.2337 6.2607603 -25.2127 0.0 -12.13718 0.0 
  5.452919921875 14.700999755859375 10.653199462890624 -94.8462 86.9278 54.312 2.44484 -20.4593 -8.5938 4.47078 36.961 1.2609 -42.9697 45.1609 40.8438 19.0577 -47.1987 21.6738 -120.6426 3.76078 -8.7883 -30.2942 5.47391 33.5964 0.0 49.9315 0.0 39.5024 16.7976 20.8917 0.0 0.0 0.0 0.0 0.0 0.0 114.4265 2.24729 3.80827 36.6018 6.78928 -20.9378 0.0 29.2868 0.0 -11.4023 0.497581 7.06464 0.0 0.0 0.0 0.0 0.0 0.0 8.70231 5.9957 15.3283 0.0 6.07379 0.0 -10.1759 9.49813 5.92196 0.0 -11.36746 0.0 10.2731 6.98341 9.32712 0.0 6.91716 0.0 17.2364 6.1778803 -25.2991 0.0 -12.16507 0.0 
  5.470780029296875 14.69 10.655899658203126 -94.1159 86.9723 53.795 2.21907 -20.4179 -8.67847 4.3908 36.8891 1.31589 -42.3049 44.9771 40.1378 19.3521 -47.5395 21.4147 -120.5348 3.97553 -8.89134 -30.3071 5.71187 33.298 0.0 50.3182 0.0 37.0071 14.9333 19.6663 0.0 0.0 0.0 0.0 0.0 0.0 114.5337 2.35723 3.97173 36.833 6.57478 -21.267 0.0 28.4182 0.0 -10.6463 0.470889 6.97551 0.0 0.0 0.0 0.0 0.0 0.0 8.57308 6.15286 15.6202 0.0 5.63314 0.0 -10.1223 9.826241 5.18159 0.0 -11.31002 0.0 10.1316 6.93569 9.23241 0.0 7.00133 0.0 17.3077 6.0740004 -25.2958 0.0 -12.07752 0.0 
  5.489240112304688 14.678800048828125 10.658900146484376 -92.8476 86.975 52.6546 2.14738 -20.3506 -8.62276 4.07895 36.9234 1.33085 -41.5989 44.661 39.4777 19.7008 -48.0196 21.2104 -120.2736 4.17605 -9.25921 -30.3893 5.73849 33.2799 0.0 50.5532 0.0 34.0616 12.1592 17.2947 0.0 0.0 0.0 0.0 0.0 0.0 114.711 2.42185 4.02359 37.1043 6.5894 -21.7362 0.0 27.613 0.0 -9.99856 0.180724 6.42298 0.0 0.0 0.0 0.0 0.0 0.0 8.42154 6.31891 16.0784 0.0 5.30406 0.0 -10.0031 10.059071 4.55935 0.0 -11.3883705 0.0 10.0035 6.91357 9.20389 0.0 7.09692 0.0 17.3729 6.0168896 -25.3986 0.0 -12.06905 0.0 
